<svg xmlns="http://www.w3.org/2000/svg" width="340" height="220" viewBox="0 0 340 220">
  <rect width="340" height="220" rx="12" fill="#0d1117"/>
  <text x="110" y="16" text-anchor="middle"
    font-family="ui-monospace,SFMono-Regular,monospace" font-size="11"
    font-weight="600" fill="#8b949e" letter-spacing="1">TOP LANGUAGES</text>
  <path d="M 110.000 20.000 A 90 90 0 0 1 192.213 146.619 L 157.501 131.158 A 52 52 0 0 0 110.000 58.000 Z" fill="#3178c6"><title>TypeScript 32.2%</title></path>  <path d="M 190.885 149.466 A 90 90 0 0 1 124.918 198.755 L 118.619 161.281 A 52 52 0 0 0 156.734 132.803 Z" fill="#f1e05a"><title>JavaScript 15.7%</title></path>  <path d="M 121.811 199.222 A 90 90 0 0 1 49.704 176.816 L 75.162 148.605 A 52 52 0 0 0 116.824 161.550 Z" fill="#e34c26"><title>HTML 14.3%</title></path>  <path d="M 47.409 174.671 A 90 90 0 0 1 20.042 107.256 L 58.024 108.415 A 52 52 0 0 0 73.836 147.365 Z" fill="#563d7c"><title>CSS 13.8%</title></path>  <path d="M 20.192 104.118 A 90 90 0 0 1 53.556 39.899 L 77.388 69.497 A 52 52 0 0 0 58.111 106.602 Z" fill="#555555"><title>C 13.7%</title></path>  <path d="M 56.037 37.972 A 90 90 0 0 1 86.274 23.184 L 96.292 59.839 A 52 52 0 0 0 78.822 68.384 Z" fill="#b07219"><title>Java 6.5%</title></path>  <path d="M 89.319 22.408 A 90 90 0 0 1 101.114 20.440 L 104.866 58.254 A 52 52 0 0 0 98.051 59.392 Z" fill="#f34b7d"><title>C++ 2.7%</title></path>  <path d="M 104.245 20.184 A 90 90 0 0 1 106.859 20.055 L 108.185 58.032 A 52 52 0 0 0 106.675 58.106 Z" fill="#3572A5"><title>Python 1.0%</title></path>
  <text x="110" y="115" text-anchor="middle"
    font-family="ui-monospace,SFMono-Regular,monospace" font-size="11" fill="#8b949e">languages</text>
  <rect x="215" y="30" width="10" height="10" rx="2" fill="#3178c6"/>  <text x="231" y="39" font-family="ui-monospace,SFMono-Regular,monospace" font-size="11" fill="#c9d1d9">TypeScript <tspan fill="#8b949e">32.2%</tspan></text>  <rect x="215" y="52" width="10" height="10" rx="2" fill="#f1e05a"/>  <text x="231" y="61" font-family="ui-monospace,SFMono-Regular,monospace" font-size="11" fill="#c9d1d9">JavaScript <tspan fill="#8b949e">15.7%</tspan></text>  <rect x="215" y="74" width="10" height="10" rx="2" fill="#e34c26"/>  <text x="231" y="83" font-family="ui-monospace,SFMono-Regular,monospace" font-size="11" fill="#c9d1d9">HTML <tspan fill="#8b949e">14.3%</tspan></text>  <rect x="215" y="96" width="10" height="10" rx="2" fill="#563d7c"/>  <text x="231" y="105" font-family="ui-monospace,SFMono-Regular,monospace" font-size="11" fill="#c9d1d9">CSS <tspan fill="#8b949e">13.8%</tspan></text>  <rect x="215" y="118" width="10" height="10" rx="2" fill="#555555"/>  <text x="231" y="127" font-family="ui-monospace,SFMono-Regular,monospace" font-size="11" fill="#c9d1d9">C <tspan fill="#8b949e">13.7%</tspan></text>  <rect x="215" y="140" width="10" height="10" rx="2" fill="#b07219"/>  <text x="231" y="149" font-family="ui-monospace,SFMono-Regular,monospace" font-size="11" fill="#c9d1d9">Java <tspan fill="#8b949e">6.5%</tspan></text>  <rect x="215" y="162" width="10" height="10" rx="2" fill="#f34b7d"/>  <text x="231" y="171" font-family="ui-monospace,SFMono-Regular,monospace" font-size="11" fill="#c9d1d9">C++ <tspan fill="#8b949e">2.7%</tspan></text>  <rect x="215" y="184" width="10" height="10" rx="2" fill="#3572A5"/>  <text x="231" y="193" font-family="ui-monospace,SFMono-Regular,monospace" font-size="11" fill="#c9d1d9">Python <tspan fill="#8b949e">1.0%</tspan></text>
</svg>