<svg xmlns="http://www.w3.org/2000/svg" width="340" height="220" viewBox="0 0 340 220">
  <rect width="340" height="220" rx="12" fill="#0d1117"/>
  <text x="110" y="16" text-anchor="middle"
    font-family="ui-monospace,SFMono-Regular,monospace" font-size="11"
    font-weight="600" fill="#8b949e" letter-spacing="1">TOP LANGUAGES</text>
  <path d="M 110.000 20.000 A 90 90 0 1 1 100.637 199.512 L 104.590 161.718 A 52 52 0 1 0 110.000 58.000 Z" fill="#3178c6"><title>TypeScript 52.2%</title></path>  <path d="M 97.519 199.130 A 90 90 0 0 1 41.440 168.305 L 70.387 143.687 A 52 52 0 0 0 102.789 161.498 Z" fill="#f1e05a"><title>JavaScript 12.1%</title></path>  <path d="M 39.447 165.877 A 90 90 0 0 1 20.346 117.887 L 58.200 114.557 A 52 52 0 0 0 69.236 142.284 Z" fill="#e34c26"><title>HTML 9.8%</title></path>  <path d="M 20.126 114.753 A 90 90 0 0 1 31.264 66.404 L 64.508 84.811 A 52 52 0 0 0 58.073 112.746 Z" fill="#563d7c"><title>CSS 9.4%</title></path>  <path d="M 32.833 63.683 A 90 90 0 0 1 68.845 29.961 L 86.222 63.755 A 52 52 0 0 0 65.415 83.239 Z" fill="#555555"><title>C 9.4%</title></path>  <path d="M 71.664 28.573 A 90 90 0 0 1 92.686 21.681 L 99.997 58.971 A 52 52 0 0 0 87.850 62.953 Z" fill="#b07219"><title>Java 4.5%</title></path>  <path d="M 95.779 21.131 A 90 90 0 0 1 102.924 20.279 L 105.912 58.161 A 52 52 0 0 0 101.784 58.653 Z" fill="#f34b7d"><title>C++ 1.8%</title></path>  <path d="M 106.060 20.086 A 90 90 0 0 1 106.859 20.055 L 108.185 58.032 A 52 52 0 0 0 107.724 58.050 Z" fill="#3572A5"><title>Python 0.7%</title></path>
  <text x="110" y="115" text-anchor="middle"
    font-family="ui-monospace,SFMono-Regular,monospace" font-size="11" fill="#8b949e">languages</text>
  <rect x="215" y="30" width="10" height="10" rx="2" fill="#3178c6"/>  <text x="231" y="39" font-family="ui-monospace,SFMono-Regular,monospace" font-size="11" fill="#c9d1d9">TypeScript <tspan fill="#8b949e">52.2%</tspan></text>  <rect x="215" y="52" width="10" height="10" rx="2" fill="#f1e05a"/>  <text x="231" y="61" font-family="ui-monospace,SFMono-Regular,monospace" font-size="11" fill="#c9d1d9">JavaScript <tspan fill="#8b949e">12.1%</tspan></text>  <rect x="215" y="74" width="10" height="10" rx="2" fill="#e34c26"/>  <text x="231" y="83" font-family="ui-monospace,SFMono-Regular,monospace" font-size="11" fill="#c9d1d9">HTML <tspan fill="#8b949e">9.8%</tspan></text>  <rect x="215" y="96" width="10" height="10" rx="2" fill="#563d7c"/>  <text x="231" y="105" font-family="ui-monospace,SFMono-Regular,monospace" font-size="11" fill="#c9d1d9">CSS <tspan fill="#8b949e">9.4%</tspan></text>  <rect x="215" y="118" width="10" height="10" rx="2" fill="#555555"/>  <text x="231" y="127" font-family="ui-monospace,SFMono-Regular,monospace" font-size="11" fill="#c9d1d9">C <tspan fill="#8b949e">9.4%</tspan></text>  <rect x="215" y="140" width="10" height="10" rx="2" fill="#b07219"/>  <text x="231" y="149" font-family="ui-monospace,SFMono-Regular,monospace" font-size="11" fill="#c9d1d9">Java <tspan fill="#8b949e">4.5%</tspan></text>  <rect x="215" y="162" width="10" height="10" rx="2" fill="#f34b7d"/>  <text x="231" y="171" font-family="ui-monospace,SFMono-Regular,monospace" font-size="11" fill="#c9d1d9">C++ <tspan fill="#8b949e">1.8%</tspan></text>  <rect x="215" y="184" width="10" height="10" rx="2" fill="#3572A5"/>  <text x="231" y="193" font-family="ui-monospace,SFMono-Regular,monospace" font-size="11" fill="#c9d1d9">Python <tspan fill="#8b949e">0.7%</tspan></text>
</svg>