<svg xmlns="http://www.w3.org/2000/svg" width="340" height="220" viewBox="0 0 340 220">
  <rect width="340" height="220" rx="12" fill="#0d1117"/>
  <text x="110" y="16" text-anchor="middle"
    font-family="ui-monospace,SFMono-Regular,monospace" font-size="11"
    font-weight="600" fill="#8b949e" letter-spacing="1">TOP LANGUAGES</text>
  <path d="M 110.000 20.000 A 90 90 0 1 1 86.377 196.844 L 96.351 160.177 A 52 52 0 1 0 110.000 58.000 Z" fill="#3178c6"><title>TypeScript 54.8%</title></path>  <path d="M 83.360 195.967 A 90 90 0 0 1 35.122 159.932 L 66.737 138.850 A 52 52 0 0 0 94.608 159.670 Z" fill="#f1e05a"><title>JavaScript 11.4%</title></path>  <path d="M 33.425 157.289 A 90 90 0 0 1 20.004 110.803 L 58.002 110.464 A 52 52 0 0 0 65.757 137.322 Z" fill="#e34c26"><title>HTML 9.2%</title></path>  <path d="M 20.030 107.662 A 90 90 0 0 1 33.824 62.071 L 65.987 82.308 A 52 52 0 0 0 58.018 108.649 Z" fill="#563d7c"><title>CSS 9.1%</title></path>  <path d="M 35.543 59.442 A 90 90 0 0 1 70.095 29.330 L 86.944 63.391 A 52 52 0 0 0 66.980 80.789 Z" fill="#555555"><title>C 8.8%</title></path>  <path d="M 72.935 27.987 A 90 90 0 0 1 93.646 21.498 L 100.551 58.866 A 52 52 0 0 0 88.584 62.615 Z" fill="#b07219"><title>Java 4.4%</title></path>  <path d="M 96.745 20.981 A 90 90 0 0 1 103.193 20.258 L 106.067 58.149 A 52 52 0 0 0 102.341 58.567 Z" fill="#f34b7d"><title>C++ 1.7%</title></path>  <path d="M 106.329 20.075 A 90 90 0 0 1 106.859 20.055 L 108.185 58.032 A 52 52 0 0 0 107.879 58.043 Z" fill="#3572A5"><title>Python 0.6%</title></path>
  <text x="110" y="115" text-anchor="middle"
    font-family="ui-monospace,SFMono-Regular,monospace" font-size="11" fill="#8b949e">languages</text>
  <rect x="215" y="30" width="10" height="10" rx="2" fill="#3178c6"/>  <text x="231" y="39" font-family="ui-monospace,SFMono-Regular,monospace" font-size="11" fill="#c9d1d9">TypeScript <tspan fill="#8b949e">54.8%</tspan></text>  <rect x="215" y="52" width="10" height="10" rx="2" fill="#f1e05a"/>  <text x="231" y="61" font-family="ui-monospace,SFMono-Regular,monospace" font-size="11" fill="#c9d1d9">JavaScript <tspan fill="#8b949e">11.4%</tspan></text>  <rect x="215" y="74" width="10" height="10" rx="2" fill="#e34c26"/>  <text x="231" y="83" font-family="ui-monospace,SFMono-Regular,monospace" font-size="11" fill="#c9d1d9">HTML <tspan fill="#8b949e">9.2%</tspan></text>  <rect x="215" y="96" width="10" height="10" rx="2" fill="#563d7c"/>  <text x="231" y="105" font-family="ui-monospace,SFMono-Regular,monospace" font-size="11" fill="#c9d1d9">CSS <tspan fill="#8b949e">9.1%</tspan></text>  <rect x="215" y="118" width="10" height="10" rx="2" fill="#555555"/>  <text x="231" y="127" font-family="ui-monospace,SFMono-Regular,monospace" font-size="11" fill="#c9d1d9">C <tspan fill="#8b949e">8.8%</tspan></text>  <rect x="215" y="140" width="10" height="10" rx="2" fill="#b07219"/>  <text x="231" y="149" font-family="ui-monospace,SFMono-Regular,monospace" font-size="11" fill="#c9d1d9">Java <tspan fill="#8b949e">4.4%</tspan></text>  <rect x="215" y="162" width="10" height="10" rx="2" fill="#f34b7d"/>  <text x="231" y="171" font-family="ui-monospace,SFMono-Regular,monospace" font-size="11" fill="#c9d1d9">C++ <tspan fill="#8b949e">1.7%</tspan></text>  <rect x="215" y="184" width="10" height="10" rx="2" fill="#3572A5"/>  <text x="231" y="193" font-family="ui-monospace,SFMono-Regular,monospace" font-size="11" fill="#c9d1d9">Python <tspan fill="#8b949e">0.6%</tspan></text>
</svg>