<svg xmlns="http://www.w3.org/2000/svg" width="340" height="220" viewBox="0 0 340 220">
  <rect width="340" height="220" rx="12" fill="#0d1117"/>
  <text x="110" y="16" text-anchor="middle"
    font-family="ui-monospace,SFMono-Regular,monospace" font-size="11"
    font-weight="600" fill="#8b949e" letter-spacing="1">TOP LANGUAGES</text>
  <path d="M 110.000 20.000 A 90 90 0 1 1 85.473 196.593 L 95.829 160.032 A 52 52 0 1 0 110.000 58.000 Z" fill="#3178c6"><title>TypeScript 54.9%</title></path>  <path d="M 82.466 195.685 A 90 90 0 0 1 34.499 158.985 L 66.377 138.303 A 52 52 0 0 0 94.091 159.507 Z" fill="#f1e05a"><title>JavaScript 11.4%</title></path>  <path d="M 32.835 156.321 A 90 90 0 0 1 20.000 109.911 L 58.000 109.948 A 52 52 0 0 0 65.416 136.763 Z" fill="#e34c26"><title>HTML 9.2%</title></path>  <path d="M 20.058 106.770 A 90 90 0 0 1 34.387 61.187 L 66.312 81.797 A 52 52 0 0 0 58.034 108.134 Z" fill="#563d7c"><title>CSS 9.1%</title></path>  <path d="M 36.137 58.578 A 90 90 0 0 1 71.172 28.806 L 87.566 63.088 A 52 52 0 0 0 67.323 80.290 Z" fill="#555555"><title>C 8.8%</title></path>  <path d="M 74.029 27.501 A 90 90 0 0 1 93.606 21.506 L 100.528 58.870 A 52 52 0 0 0 89.217 62.334 Z" fill="#b07219"><title>Java 4.2%</title></path>  <path d="M 96.705 20.987 A 90 90 0 0 1 103.182 20.259 L 106.061 58.149 A 52 52 0 0 0 102.318 58.571 Z" fill="#f34b7d"><title>C++ 1.7%</title></path>  <path d="M 106.318 20.075 A 90 90 0 0 1 106.859 20.055 L 108.185 58.032 A 52 52 0 0 0 107.873 58.044 Z" fill="#3572A5"><title>Python 0.7%</title></path>
  <text x="110" y="115" text-anchor="middle"
    font-family="ui-monospace,SFMono-Regular,monospace" font-size="11" fill="#8b949e">languages</text>
  <rect x="215" y="30" width="10" height="10" rx="2" fill="#3178c6"/>  <text x="231" y="39" font-family="ui-monospace,SFMono-Regular,monospace" font-size="11" fill="#c9d1d9">TypeScript <tspan fill="#8b949e">54.9%</tspan></text>  <rect x="215" y="52" width="10" height="10" rx="2" fill="#f1e05a"/>  <text x="231" y="61" font-family="ui-monospace,SFMono-Regular,monospace" font-size="11" fill="#c9d1d9">JavaScript <tspan fill="#8b949e">11.4%</tspan></text>  <rect x="215" y="74" width="10" height="10" rx="2" fill="#e34c26"/>  <text x="231" y="83" font-family="ui-monospace,SFMono-Regular,monospace" font-size="11" fill="#c9d1d9">HTML <tspan fill="#8b949e">9.2%</tspan></text>  <rect x="215" y="96" width="10" height="10" rx="2" fill="#563d7c"/>  <text x="231" y="105" font-family="ui-monospace,SFMono-Regular,monospace" font-size="11" fill="#c9d1d9">CSS <tspan fill="#8b949e">9.1%</tspan></text>  <rect x="215" y="118" width="10" height="10" rx="2" fill="#555555"/>  <text x="231" y="127" font-family="ui-monospace,SFMono-Regular,monospace" font-size="11" fill="#c9d1d9">C <tspan fill="#8b949e">8.8%</tspan></text>  <rect x="215" y="140" width="10" height="10" rx="2" fill="#b07219"/>  <text x="231" y="149" font-family="ui-monospace,SFMono-Regular,monospace" font-size="11" fill="#c9d1d9">Java <tspan fill="#8b949e">4.2%</tspan></text>  <rect x="215" y="162" width="10" height="10" rx="2" fill="#f34b7d"/>  <text x="231" y="171" font-family="ui-monospace,SFMono-Regular,monospace" font-size="11" fill="#c9d1d9">C++ <tspan fill="#8b949e">1.7%</tspan></text>  <rect x="215" y="184" width="10" height="10" rx="2" fill="#3572A5"/>  <text x="231" y="193" font-family="ui-monospace,SFMono-Regular,monospace" font-size="11" fill="#c9d1d9">Python <tspan fill="#8b949e">0.7%</tspan></text>
</svg>